# This file uses centimeters as units for non-parametric coordinates.

mtllib teeth.mtl
g default
v -0.104225 3.506091 0.627809
v -0.120681 3.506090 0.627809
v -0.128909 3.506090 0.642060
v -0.120681 3.506090 0.656311
v -0.104225 3.506090 0.656311
v -0.095997 3.506090 0.642060
v -0.099083 3.556459 0.618902
v -0.125823 3.556459 0.618902
v -0.139194 3.556459 0.642060
v -0.125823 3.556459 0.665218
v -0.099083 3.556459 0.665218
v -0.085713 3.556459 0.642060
v -0.112453 3.497276 0.654804
v -0.099370 3.531275 0.664721
v -0.112453 3.565274 0.668164
v -0.101417 3.497276 0.648432
v -0.086286 3.531275 0.642060
v -0.089847 3.565274 0.655112
v -0.101417 3.497276 0.635688
v -0.089847 3.565274 0.629008
v -0.112453 3.497276 0.629316
v -0.125537 3.531275 0.619399
v -0.112453 3.565274 0.615956
v -0.099370 3.531275 0.619399
v -0.123490 3.497276 0.635688
v -0.138620 3.531275 0.642060
v -0.135060 3.565274 0.629008
v -0.123490 3.497276 0.648432
v -0.125537 3.531275 0.664721
v -0.135060 3.565274 0.655112
v -0.112453 3.531275 0.616161
v -0.134882 3.531275 0.629111
v -0.134882 3.531275 0.655009
v -0.112453 3.531275 0.667959
v -0.090024 3.531275 0.655009
v -0.090024 3.531275 0.629111
v -0.112453 3.485943 0.642060
v -0.112453 3.576607 0.642060
vt 0.375000 0.312500
vt 0.625000 0.312500
vt 0.578125 0.020934
vt 0.416667 0.312500
vt 0.421875 0.020934
vt 0.458333 0.312500
vt 0.343750 0.156250
vt 0.500000 0.312500
vt 0.421875 0.291566
vt 0.541667 0.312500
vt 0.578125 0.291566
vt 0.583333 0.312500
vt 0.656250 0.156250
vt 0.375000 0.687500
vt 0.578125 0.979066
vt 0.625000 0.687500
vt 0.416667 0.687500
vt 0.421875 0.979066
vt 0.458333 0.687500
vt 0.343750 0.843750
vt 0.500000 0.687500
vt 0.421875 0.708434
vt 0.541667 0.687500
vt 0.578125 0.708434
vt 0.583333 0.687500
vt 0.656250 0.843750
vt 0.395833 0.500000
vt 0.437500 0.500000
vt 0.479167 0.500000
vt 0.520833 0.500000
vt 0.562500 0.500000
vt 0.604167 0.500000
vt 0.500000 0.156250
vt 0.500000 0.843750
vt 0.395833 0.312500
vt 0.500000 0.020934
vt 0.416667 0.500000
vt 0.395833 0.687500
vt 0.500000 0.979066
vt 0.375000 0.500000
vt 0.625000 0.500000
vt 0.437500 0.312500
vt 0.382812 0.088592
vt 0.458333 0.500000
vt 0.437500 0.687500
vt 0.382812 0.911408
vt 0.479167 0.312500
vt 0.382812 0.223908
vt 0.500000 0.500000
vt 0.479167 0.687500
vt 0.382812 0.776092
vt 0.520833 0.312500
vt 0.500000 0.291566
vt 0.541667 0.500000
vt 0.520833 0.687500
vt 0.500000 0.708434
vt 0.562500 0.312500
vt 0.617188 0.223908
vt 0.583333 0.500000
vt 0.562500 0.687500
vt 0.617188 0.776092
vt 0.604167 0.312500
vt 0.617188 0.088592
vt 0.604167 0.687500
vt 0.617188 0.911408
vn 0.460079 -0.391545 -0.796881
vn 0.000003 -0.556186 -0.831058
vn 0.000002 -0.167581 -0.985858
vn 0.492780 -0.169345 -0.853517
vn -0.460077 -0.391543 -0.796884
vn -0.492778 -0.169345 -0.853517
vn -0.479652 0.282378 -0.830781
vn 0.000002 0.593481 -0.804848
vn 0.479653 0.282373 -0.830782
vn -0.719718 -0.556187 -0.415527
vn -0.853779 -0.167581 -0.492929
vn -0.920160 -0.391544 0.000002
vn -0.985557 -0.169344 -0.000000
vn -0.959303 0.282379 -0.000000
vn -0.697014 0.593485 -0.402425
vn -0.719717 -0.556185 0.415532
vn -0.853780 -0.167581 0.492927
vn -0.460077 -0.391545 0.796882
vn -0.492778 -0.169344 0.853518
vn -0.479650 0.282377 0.830782
vn -0.697016 0.593484 0.402423
vn -0.000001 -0.556187 0.831057
vn -0.000002 -0.167579 0.985859
vn 0.460077 -0.391544 0.796883
vn 0.492778 -0.169344 0.853518
vn 0.479650 0.282377 0.830782
vn -0.000000 0.593482 0.804848
vn 0.719718 -0.556187 0.415526
vn 0.853780 -0.167580 0.492927
vn 0.920160 -0.391542 -0.000005
vn 0.985557 -0.169342 -0.000003
vn 0.959303 0.282379 0.000001
vn 0.697016 0.593484 0.402425
vn 0.719715 -0.556184 -0.415536
vn 0.853777 -0.167581 -0.492932
vn 0.697014 0.593486 -0.402425
vn 0.000001 -1.000000 0.000000
vn 0.000001 1.000000 -0.000001
s 1
g pCylinder5
usemtl initialShadingGroup
f 1/1/1 21/35/2 31/27/3 24/40/4
f 21/35/2 2/4/5 22/37/6 31/27/3
f 31/27/3 22/37/6 8/17/7 23/38/8
f 24/40/4 31/27/3 23/38/8 7/14/9
f 2/4/5 25/42/10 32/28/11 22/37/6
f 25/42/10 3/6/12 26/44/13 32/28/11
f 32/28/11 26/44/13 9/19/14 27/45/15
f 22/37/6 32/28/11 27/45/15 8/17/7
f 3/6/12 28/47/16 33/29/17 26/44/13
f 28/47/16 4/8/18 29/49/19 33/29/17
f 33/29/17 29/49/19 10/21/20 30/50/21
f 26/44/13 33/29/17 30/50/21 9/19/14
f 4/8/18 13/52/22 34/30/23 29/49/19
f 13/52/22 5/10/24 14/54/25 34/30/23
f 34/30/23 14/54/25 11/23/26 15/55/27
f 29/49/19 34/30/23 15/55/27 10/21/20
f 5/10/24 16/57/28 35/31/29 14/54/25
f 16/57/28 6/12/30 17/59/31 35/31/29
f 35/31/29 17/59/31 12/25/32 18/60/33
f 14/54/25 35/31/29 18/60/33 11/23/26
f 6/12/30 19/62/34 36/32/35 17/59/31
f 19/62/34 1/2/1 24/41/4 36/32/35
f 36/32/35 24/41/4 7/16/9 20/64/36
f 17/59/31 36/32/35 20/64/36 12/25/32
f 1/3/1 19/63/34 37/33/37 21/36/2
f 6/13/30 16/58/28 37/33/37 19/63/34
f 5/11/24 13/53/22 37/33/37 16/58/28
f 4/9/18 28/48/16 37/33/37 13/53/22
f 3/7/12 25/43/10 37/33/37 28/48/16
f 2/5/5 21/36/2 37/33/37 25/43/10
f 7/15/9 23/39/8 38/34/38 20/65/36
f 8/18/7 27/46/15 38/34/38 23/39/8
f 9/20/14 30/51/21 38/34/38 27/46/15
f 10/22/20 15/56/27 38/34/38 30/51/21
f 11/24/26 18/61/33 38/34/38 15/56/27
f 12/26/32 20/65/36 38/34/38 18/61/33
g default
v -0.104225 3.506091 0.627809
v -0.120681 3.506090 0.627809
v -0.128909 3.506090 0.642060
v -0.120681 3.506090 0.656311
v -0.104225 3.506090 0.656311
v -0.095997 3.506090 0.642060
v -0.099083 3.556459 0.618902
v -0.125823 3.556459 0.618902
v -0.139194 3.556459 0.642060
v -0.125823 3.556459 0.665218
v -0.099083 3.556459 0.665218
v -0.085713 3.556459 0.642060
v -0.112453 3.497276 0.654804
v -0.099370 3.531275 0.664721
v -0.112453 3.565274 0.668164
v -0.101417 3.497276 0.648432
v -0.086286 3.531275 0.642060
v -0.089847 3.565274 0.655112
v -0.101417 3.497276 0.635688
v -0.089847 3.565274 0.629008
v -0.112453 3.497276 0.629316
v -0.125537 3.531275 0.619399
v -0.112453 3.565274 0.615956
v -0.099370 3.531275 0.619399
v -0.123490 3.497276 0.635688
v -0.138620 3.531275 0.642060
v -0.135060 3.565274 0.629008
v -0.123490 3.497276 0.648432
v -0.125537 3.531275 0.664721
v -0.135060 3.565274 0.655112
v -0.112453 3.531275 0.616161
v -0.134882 3.531275 0.629111
v -0.134882 3.531275 0.655009
v -0.112453 3.531275 0.667959
v -0.090024 3.531275 0.655009
v -0.090024 3.531275 0.629111
v -0.112453 3.485943 0.642060
v -0.112453 3.576607 0.642060
vt 0.375000 0.312500
vt 0.625000 0.312500
vt 0.578125 0.020934
vt 0.416667 0.312500
vt 0.421875 0.020934
vt 0.458333 0.312500
vt 0.343750 0.156250
vt 0.500000 0.312500
vt 0.421875 0.291566
vt 0.541667 0.312500
vt 0.578125 0.291566
vt 0.583333 0.312500
vt 0.656250 0.156250
vt 0.375000 0.687500
vt 0.578125 0.979066
vt 0.625000 0.687500
vt 0.416667 0.687500
vt 0.421875 0.979066
vt 0.458333 0.687500
vt 0.343750 0.843750
vt 0.500000 0.687500
vt 0.421875 0.708434
vt 0.541667 0.687500
vt 0.578125 0.708434
vt 0.583333 0.687500
vt 0.656250 0.843750
vt 0.395833 0.500000
vt 0.437500 0.500000
vt 0.479167 0.500000
vt 0.520833 0.500000
vt 0.562500 0.500000
vt 0.604167 0.500000
vt 0.500000 0.156250
vt 0.500000 0.843750
vt 0.395833 0.312500
vt 0.500000 0.020934
vt 0.416667 0.500000
vt 0.395833 0.687500
vt 0.500000 0.979066
vt 0.375000 0.500000
vt 0.625000 0.500000
vt 0.437500 0.312500
vt 0.382812 0.088592
vt 0.458333 0.500000
vt 0.437500 0.687500
vt 0.382812 0.911408
vt 0.479167 0.312500
vt 0.382812 0.223908
vt 0.500000 0.500000
vt 0.479167 0.687500
vt 0.382812 0.776092
vt 0.520833 0.312500
vt 0.500000 0.291566
vt 0.541667 0.500000
vt 0.520833 0.687500
vt 0.500000 0.708434
vt 0.562500 0.312500
vt 0.617188 0.223908
vt 0.583333 0.500000
vt 0.562500 0.687500
vt 0.617188 0.776092
vt 0.604167 0.312500
vt 0.617188 0.088592
vt 0.604167 0.687500
vt 0.617188 0.911408
vn 0.460079 -0.391545 -0.796881
vn 0.000003 -0.556186 -0.831058
vn 0.000002 -0.167581 -0.985858
vn 0.492780 -0.169345 -0.853517
vn -0.460077 -0.391543 -0.796884
vn -0.492778 -0.169345 -0.853517
vn -0.479652 0.282378 -0.830781
vn 0.000002 0.593481 -0.804848
vn 0.479653 0.282373 -0.830782
vn -0.719718 -0.556187 -0.415527
vn -0.853779 -0.167581 -0.492929
vn -0.920160 -0.391544 0.000002
vn -0.985557 -0.169344 -0.000000
vn -0.959303 0.282379 -0.000000
vn -0.697014 0.593485 -0.402425
vn -0.719717 -0.556185 0.415532
vn -0.853780 -0.167581 0.492927
vn -0.460077 -0.391545 0.796882
vn -0.492778 -0.169344 0.853518
vn -0.479650 0.282377 0.830782
vn -0.697016 0.593484 0.402423
vn -0.000001 -0.556187 0.831057
vn -0.000002 -0.167579 0.985859
vn 0.460077 -0.391544 0.796883
vn 0.492778 -0.169344 0.853518
vn 0.479650 0.282377 0.830782
vn -0.000000 0.593482 0.804848
vn 0.719718 -0.556187 0.415526
vn 0.853780 -0.167580 0.492927
vn 0.920160 -0.391542 -0.000005
vn 0.985557 -0.169342 -0.000003
vn 0.959303 0.282379 0.000001
vn 0.697016 0.593484 0.402425
vn 0.719715 -0.556184 -0.415536
vn 0.853777 -0.167581 -0.492932
vn 0.697014 0.593486 -0.402425
vn 0.000001 -1.000000 0.000000
vn 0.000001 1.000000 -0.000001
s 1
g pCylinder5
f 39/66/39 59/100/40 69/92/41 62/105/42
f 59/100/40 40/69/43 60/102/44 69/92/41
f 69/92/41 60/102/44 46/82/45 61/103/46
f 62/105/42 69/92/41 61/103/46 45/79/47
f 40/69/43 63/107/48 70/93/49 60/102/44
f 63/107/48 41/71/50 64/109/51 70/93/49
f 70/93/49 64/109/51 47/84/52 65/110/53
f 60/102/44 70/93/49 65/110/53 46/82/45
f 41/71/50 66/112/54 71/94/55 64/109/51
f 66/112/54 42/73/56 67/114/57 71/94/55
f 71/94/55 67/114/57 48/86/58 68/115/59
f 64/109/51 71/94/55 68/115/59 47/84/52
f 42/73/56 51/117/60 72/95/61 67/114/57
f 51/117/60 43/75/62 52/119/63 72/95/61
f 72/95/61 52/119/63 49/88/64 53/120/65
f 67/114/57 72/95/61 53/120/65 48/86/58
f 43/75/62 54/122/66 73/96/67 52/119/63
f 54/122/66 44/77/68 55/124/69 73/96/67
f 73/96/67 55/124/69 50/90/70 56/125/71
f 52/119/63 73/96/67 56/125/71 49/88/64
f 44/77/68 57/127/72 74/97/73 55/124/69
f 57/127/72 39/67/39 62/106/42 74/97/73
f 74/97/73 62/106/42 45/81/47 58/129/74
f 55/124/69 74/97/73 58/129/74 50/90/70
f 39/68/39 57/128/72 75/98/75 59/101/40
f 44/78/68 54/123/66 75/98/75 57/128/72
f 43/76/62 51/118/60 75/98/75 54/123/66
f 42/74/56 66/113/54 75/98/75 51/118/60
f 41/72/50 63/108/48 75/98/75 66/113/54
f 40/70/43 59/101/40 75/98/75 63/108/48
f 45/80/47 61/104/46 76/99/76 58/130/74
f 46/83/45 65/111/53 76/99/76 61/104/46
f 47/85/52 68/116/59 76/99/76 65/111/53
f 48/87/58 53/121/65 76/99/76 68/116/59
f 49/89/64 56/126/71 76/99/76 53/121/65
f 50/91/70 58/130/74 76/99/76 56/126/71
